<svg width="232" height="66" viewBox="0 0 232 66" fill="none" xmlns="http://www.w3.org/2000/svg">
<path d="M224.886 19.4636C223.488 18.0453 222.678 17.7019 220.478 16L217 21.1282C218.299 21.6806 219.988 22.6062 221.358 23.6737C228.407 29.1752 226.171 34.5721 220.989 44C230.153 34.2287 231.459 26.1296 224.886 19.4636Z" fill="white"/>
<path d="M216.646 2.15575C216.867 2.32194 216.856 2.42582 216.625 2.58162C213.897 4.43053 211.169 6.26905 208.44 8.11795C208.388 8.1595 208.325 8.20105 208.251 8.25298L208.43 8.38802C210.025 9.63447 211.62 10.8913 213.215 12.1378C213.341 12.2312 213.446 12.2624 213.593 12.2209C214.485 11.9716 215.387 11.7327 216.289 11.4938C216.352 11.473 216.457 11.4938 216.51 11.5353C216.961 11.8781 217.412 12.2312 217.863 12.5844C218.052 12.7298 218.042 12.8337 217.853 12.9687C216.709 13.7789 215.565 14.5891 214.432 15.3993C214.327 15.472 214.243 15.5863 214.191 15.7005C213.666 16.9678 213.141 18.235 212.617 19.5022C212.501 19.7827 212.396 19.8138 212.155 19.6269C211.735 19.2945 211.316 18.9621 210.885 18.6401C210.791 18.5674 210.759 18.5051 210.759 18.3804C210.801 17.456 210.833 16.5315 210.854 15.6071C210.854 15.5136 210.812 15.3993 210.749 15.3474C209.112 14.049 207.464 12.7714 205.817 11.4834C205.796 11.4626 205.775 11.4522 205.722 11.4211C205.691 11.4938 205.66 11.5665 205.639 11.6288C204.463 14.6618 203.288 17.6845 202.123 20.7175C201.997 21.0499 201.903 21.0811 201.609 20.8525C201.042 20.4059 200.465 19.9593 199.899 19.5126C199.794 19.4295 199.762 19.3568 199.773 19.2114C200.203 15.4616 200.633 11.7015 201.063 7.95176C201.084 7.80634 201.032 7.72324 200.927 7.64014C199.227 6.31059 197.527 4.98104 195.827 3.65149C195.25 3.19446 194.914 2.63356 195.019 1.88569C195.176 0.753492 196.394 -0.357929 197.653 0.109491C197.915 0.202975 198.167 0.369168 198.388 0.535362C200.066 1.84414 201.745 3.15291 203.424 4.47208C203.55 4.56556 203.645 4.58633 203.802 4.5344C207.38 3.25678 210.969 1.98956 214.558 0.711943C214.684 0.670395 214.778 0.680782 214.883 0.763879C215.471 1.2313 216.069 1.68833 216.657 2.15575H216.646Z" fill="white"/>
<path d="M25 31.92L28.88 49.4L32.88 30.84C33.36 28.4 35.52 27.64 37.56 27.96C39.48 28.28 41.08 30 40.56 32.4L34.24 60.24H25.44L20.76 40.24L16.12 60.24H7.92L1.32 32.44C0.8 30 2.44 28.28 4.4 27.96C6.44 27.64 8.64 28.4 9.12 30.84L12.84 48.36L16.52 31.92C17.2 29.52 19.28 28.88 20.76 28.88C22.24 28.88 24.32 29.52 25 31.92ZM42.9228 60.24V31.88C42.9228 29.12 44.8428 27.88 47.0828 27.88C49.3228 27.88 51.2428 29.12 51.2428 31.88V60.24H42.9228ZM70.9456 60.24H62.6256V35.12H56.5056C54.1856 35.12 53.2656 33.2 53.2656 31.56C53.2656 29.92 54.1456 28.12 56.5056 28.12H77.0656C79.4256 28.12 80.3056 29.92 80.3056 31.56C80.3056 33.2 79.3856 35.12 77.0656 35.12H70.9456V60.24ZM100.817 60.24V47.32H90.6969V60.24H82.4569V31.96C82.4569 29.28 84.4169 27.88 86.5769 27.88C88.7369 27.88 90.6969 29.28 90.6969 31.96V40.36H100.817V31.96C100.817 29.28 102.777 27.88 104.937 27.88C107.097 27.88 109.057 29.28 109.057 31.96V60.24H100.817ZM140.125 60.24H131.805V35.12H125.685C123.365 35.12 122.445 33.2 122.445 31.56C122.445 29.92 123.325 28.12 125.685 28.12H146.245C148.605 28.12 149.485 29.92 149.485 31.56C149.485 33.2 148.565 35.12 146.245 35.12H140.125V60.24ZM177.237 38.96C177.237 42.76 175.237 45.68 172.397 47.48L179.997 60.24H170.957L164.957 49.48H159.837V60.24H151.637V34.36C151.637 29.76 153.077 28.04 157.877 28.04H165.237C172.157 28.04 177.237 31.32 177.237 38.48V38.96ZM159.837 36.08V42.72H165.037C167.717 42.72 169.117 41 169.117 38.96V38.68C169.117 36.64 167.717 34.92 165.037 34.92H160.997C160.077 34.92 159.837 35.12 159.837 36.08ZM181.438 60.24V31.88C181.438 29.12 183.358 27.88 185.598 27.88C187.838 27.88 189.758 29.12 189.758 31.88V60.24H181.438ZM207.141 50.72H202.181V60.24H193.941V34.36C193.941 29.76 195.381 28.04 200.181 28.04H207.141C214.061 28.04 219.141 31.48 219.141 39.04V39.72C219.141 47.28 214.061 50.72 207.141 50.72ZM202.181 36.16V43.76H206.741C209.421 43.76 210.941 41.76 210.941 39.52V39.24C210.941 37 209.421 35 206.741 35H203.341C202.421 35 202.181 35.2 202.181 36.16Z" fill="white"/>
</svg>
