<svg width="182" height="64" viewBox="0 0 182 64" fill="none" xmlns="http://www.w3.org/2000/svg">
<path d="M174.886 18.4636C173.488 17.0453 172.678 16.7019 170.478 15L167 20.1282C168.299 20.6806 169.988 21.6062 171.358 22.6737C178.407 28.1752 176.171 33.5721 170.989 43C180.153 33.2287 181.459 25.1296 174.886 18.4636Z" fill="white"/>
<path d="M17.76 43H8.32C3.12 43 0.440001 39.52 0.440001 35.2V35.08C0.440001 30.76 3.12 27.28 8.32 27.28H17.76C22.96 27.28 25.64 30.76 25.64 35.08V35.2C25.64 39.52 22.96 43 17.76 43ZM36.36 63.56H28.36V29.96C28.36 27.36 30.24 26 32.36 26C34.48 26 36.36 27.36 36.36 29.96V63.56ZM5.28 57.6C7.76 57.32 9.96 56.04 9.96 53.48V52.04H3.4C1 52.04 0 50.4 0 48.72C0 47.04 0.96 45.36 3.4 45.36H23.68C26.12 45.36 27.04 47.08 27.04 48.72C27.04 50.36 26.08 52.04 23.68 52.04H18.12V53.48C18.12 60.36 12.48 63.8 6.6 63.88C4.4 63.92 2.52 62.76 2.48 60.84C2.44 58.88 3.44 57.8 5.28 57.6ZM8.44 35.04V35.24C8.44 36.28 9.12 37.16 10.96 37.16H15.16C17 37.16 17.64 36.28 17.64 35.24V35.04C17.64 34 17 33.08 15.16 33.08H10.96C9.12 33.08 8.44 34 8.44 35.04ZM48.56 27.28H71.64C73.92 27.28 74.72 29.12 74.72 30.64C74.72 32.16 73.88 33.96 71.64 33.96H51.4C50.56 33.96 50.28 34.2 50.28 35.04V41.2C50.28 42.04 50.56 42.32 51.4 42.32H72.28C74.52 42.32 75.4 44.16 75.4 45.64C75.4 47.12 74.48 49 72.28 49H48.56C43.76 49 42.12 47.28 42.12 42.64V33.6C42.12 29 43.76 27.28 48.56 27.28ZM43.44 56H74C76.48 56 77.44 57.76 77.44 59.4C77.44 61.04 76.44 62.76 74 62.76H43.44C41 62.76 40 61.08 40 59.4C40 57.72 40.96 56 43.44 56ZM94.65 56.04H125.21C127.69 56.04 128.65 57.76 128.65 59.4C128.65 61.04 127.65 62.76 125.21 62.76H94.65C92.21 62.76 91.21 61.08 91.21 59.4C91.21 57.72 92.17 56.04 94.65 56.04ZM99.37 27.2H123.61C125.85 27.2 126.69 28.84 126.69 30.32C126.69 31.8 125.81 33.4 123.61 33.4H102.33C101.53 33.4 101.13 33.72 101.13 34.44V36H123.37C125.61 36 126.45 37.56 126.45 39C126.45 40.44 125.57 42 123.37 42H101.13V43.52C101.13 44.32 101.53 44.6 102.33 44.6H124.25C126.49 44.6 127.33 46.2 127.33 47.68C127.33 49.16 126.45 50.76 124.25 50.76H99.37C94.73 50.76 93.01 48.84 93.01 44.52V33.44C93.01 29.12 94.73 27.2 99.37 27.2ZM167.77 63.56H139.61C135.13 63.56 133.93 62 133.93 57.72V51.96C133.93 49.24 135.73 48.16 137.97 48.16C139.89 48.16 141.45 49 141.81 50.96H159.85C160.25 49 161.85 48.16 163.81 48.16C166.05 48.16 167.77 49.28 167.77 51.96V63.56ZM155.21 47.04H138.13C134.17 47.04 132.09 44.04 132.09 40.8V40.08C132.09 36.8 134.13 34.52 138.13 34.52H146.37V33.24C146.37 32.72 146.21 32.48 145.49 32.48H134.89C133.05 32.48 132.29 31.04 132.29 29.76C132.29 28.4 133.09 27 134.89 27H148.73C152.73 27 154.33 29 154.33 31.92V39.52H141.29C140.57 39.52 140.29 39.96 140.29 40.48V40.64C140.29 41.16 140.57 41.56 141.29 41.56H155.21C157.01 41.56 157.81 43 157.81 44.32C157.81 45.64 157.09 47.04 155.21 47.04ZM159.49 47.12V29.96C159.49 27.36 161.41 26 163.53 26C165.65 26 167.57 27.4 167.57 29.96V47.12H159.49ZM143.01 58.28H159.77V56.04H141.93V57.28C141.93 58.16 142.13 58.28 143.01 58.28Z" fill="white"/>
<path d="M166.646 2.15575C166.867 2.32194 166.856 2.42582 166.625 2.58162C163.897 4.43053 161.169 6.26905 158.44 8.11795C158.388 8.1595 158.325 8.20105 158.251 8.25298L158.43 8.38802C160.025 9.63447 161.62 10.8913 163.215 12.1378C163.341 12.2312 163.446 12.2624 163.593 12.2209C164.485 11.9716 165.387 11.7327 166.289 11.4938C166.352 11.473 166.457 11.4938 166.51 11.5353C166.961 11.8781 167.412 12.2312 167.863 12.5844C168.052 12.7298 168.042 12.8337 167.853 12.9687C166.709 13.7789 165.565 14.5891 164.432 15.3993C164.327 15.472 164.243 15.5863 164.191 15.7005C163.666 16.9678 163.141 18.235 162.617 19.5022C162.501 19.7827 162.396 19.8138 162.155 19.6269C161.735 19.2945 161.316 18.9621 160.885 18.6401C160.791 18.5674 160.759 18.5051 160.759 18.3804C160.801 17.456 160.833 16.5315 160.854 15.6071C160.854 15.5136 160.812 15.3993 160.749 15.3474C159.112 14.049 157.464 12.7714 155.817 11.4834C155.796 11.4626 155.775 11.4522 155.722 11.4211C155.691 11.4938 155.66 11.5665 155.639 11.6288C154.463 14.6618 153.288 17.6845 152.123 20.7175C151.997 21.0499 151.903 21.0811 151.609 20.8525C151.042 20.4059 150.465 19.9593 149.899 19.5126C149.794 19.4295 149.762 19.3568 149.773 19.2114C150.203 15.4616 150.633 11.7015 151.063 7.95176C151.084 7.80634 151.032 7.72324 150.927 7.64014C149.227 6.31059 147.527 4.98104 145.827 3.65149C145.25 3.19446 144.914 2.63356 145.019 1.88569C145.176 0.753492 146.394 -0.357929 147.653 0.109491C147.915 0.202975 148.167 0.369168 148.388 0.535362C150.066 1.84414 151.745 3.15291 153.424 4.47208C153.55 4.56556 153.645 4.58633 153.802 4.5344C157.38 3.25678 160.969 1.98956 164.558 0.711943C164.684 0.670395 164.778 0.680782 164.883 0.763879C165.471 1.2313 166.069 1.68833 166.657 2.15575H166.646Z" fill="white"/>
</svg>
